<svg xmlns="http://www.w3.org/2000/svg" width="48" height="48" viewBox="5.757168083190918 5.197636871337891 36.15503448486328 38.43372863769531" fill="none">
<g>
<g>
<g>
<path d="M39 36.5C38.8 36.9 38.5 37.3 38.2 37.7C38.1 37.8 38.1 37.9 38 38C36.1 40.3 33 42 30.4 42.6C27 43.4 23.4 43.6 20 43C17.7 42.6 15.4 41.4 13.6 40C12.6 39.3 11.7 38.5 11 37.8C10.3 37.2 9.89995 36.6 9.69995 36.2C7.69995 33.1 6.09995 27.3 6.59995 23.1C7.99995 12.4 14.6 8.59999 23.4 8.09999C27.5 7.89999 33.9 8.69999 37 11.8C40.6 15.5 41.3999 19.7 41.5999 24.8C41.7999 29 41 32.8 39 36.5Z" fill="#FFFFFF" stroke="#000000" stroke-width="0.565" stroke-miterlimit="10" stroke-linejoin="round"/>
</g>
<g>
<path d="M19.1 24.5C17.4 22.1 17.7 18.1 20.2 15.9C22.9 13.4 27.5 13.7 29.8 16.5C31.7 18.8 31.6 22.1 30.3 24.2C30.1 24.5 29.4 25.5 28.1 26.3C25.8 27.6 23.4 27 22.8 26.8C22 26.6 20.2 26.1 19.1 24.5Z" fill="#FFFFFF" stroke="#000000" stroke-width="0.565" stroke-miterlimit="10" stroke-linejoin="round"/>
<path d="M38 38C36.1 40.3 33 42 30.4 42.6C27 43.4 23.4 43.6 20 43C17.7 42.6 15.4 41.4 13.6 40C12.6 39.3 11.7 38.5 11 37.8C11.9 35.6 13.9 33.6 15.7 32.4C19.1 30.1 23 29.8 27 29.9C32.2 30 36.8 32.6 38 38Z" fill="#FFFFFF" stroke="#000000" stroke-width="0.565" stroke-miterlimit="10" stroke-linejoin="round"/>
</g>
<g>
<path d="M25.9 19.7C25.8 19.4 25.8 18.5 26.1 18.3C26.5 18.1 26.5 18.9 26.5 19.1C26.5 19.3 26.5 19.9 26.3 20C26 20.1 25.9 19.8 25.9 19.7Z" fill="#000000" stroke="#000000" stroke-width="0.565" stroke-miterlimit="10" stroke-linejoin="round"/>
<path d="M21.9 19.6C22.4 19 23.3 19.1 23.8 19.6" stroke="#000000" stroke-width="0.565" stroke-miterlimit="10" stroke-linejoin="round" fill="#000000"/>
<path d="M22.2 22.3C23.4 22.7 24.6 23 25.9 22.5C26.5 22.2 27.4999 21.8 27.7999 21" stroke="#000000" stroke-width="0.565" stroke-miterlimit="10" stroke-linejoin="round" fill="#000000"/>
<path d="M27.4 20.7C27.6 20.8 28.1 21.1 28.2 21.3" stroke="#000000" stroke-width="0.565" stroke-miterlimit="10" stroke-linejoin="round" fill="#000000"/>
<path d="M19.1999 14.5C18.3999 13.6 17.8999 12.3 17.2999 11.3" stroke="#000000" stroke-width="0.565" stroke-miterlimit="10" stroke-linejoin="round" fill="#000000"/>
<path d="M18.1 15.3C17.6 15.1 17.1 14.8 16.6 14.5" stroke="#000000" stroke-width="0.565" stroke-miterlimit="10" stroke-linejoin="round" fill="#000000"/>
<path d="M17.7 17.1C16.2 16.9 14.6 17 13.1 16.9" stroke="#000000" stroke-width="0.565" stroke-miterlimit="10" stroke-linejoin="round" fill="#000000"/>
</g>
<g>
<path d="M12.6 9.49999C11.9 9.29999 10.6 8.99999 10.5 7.99999C10.5 6.99999 11.4 7.79999 11.8 8.09999C11.8 7.39999 13 6.79999 13.2 7.59999C13.4 8.19999 12.7 8.99999 12.6 9.49999Z" fill="#FFFFFF" stroke="#000000" stroke-width="0.565" stroke-miterlimit="10" stroke-linejoin="round"/>
<path d="M7.90004 8.29999C7.40004 8.19999 5.70004 7.69999 6.10004 6.99999C6.40004 6.99999 6.70004 7.19999 7.00004 7.29999C6.70004 6.69999 7.70004 5.79999 8.20004 6.49999C8.50004 6.89999 8.20004 7.99999 7.90004 8.29999Z" fill="#FFFFFF" stroke="#000000" stroke-width="0.565" stroke-miterlimit="10" stroke-linejoin="round"/>
<path d="M8.40002 12C7.90002 11.8 8.20002 11.1 8.70002 11.4C9.10002 11.6 8.90002 12.3 8.40002 12Z" fill="#FFFFFF" stroke="#000000" stroke-width="0.565" stroke-miterlimit="10" stroke-linejoin="round"/>
<path d="M12 5.9C11.8 5.7 11.9 5.4 12.2 5.5C12.6 5.6 12.5 6 12 5.9Z" fill="#FFFFFF" stroke="#000000" stroke-width="0.565" stroke-miterlimit="10" stroke-linejoin="round"/>
<g>
<path d="M15.6001 7.89999C14.9001 7.69999 15.3001 6.89999 15.9001 7.09999C16.7001 7.29999 16.1001 8.69999 15.1001 7.79999" fill="#FFFFFF" stroke-width="0.565" stroke="#000000"/>
<path d="M15.6001 7.89999C14.9001 7.69999 15.3001 6.89999 15.9001 7.09999C16.7001 7.29999 16.1001 8.69999 15.1001 7.79999" stroke="#000000" stroke-width="0.565" stroke-miterlimit="10" stroke-linejoin="round"/>
</g>
</g>
</g>
</g>
</svg>